<svg width="373" height="373" viewBox="0 0 373 373" fill="none" xmlns="http://www.w3.org/2000/svg">
<g clip-path="url(#clip0)">
<path d="M365.437 35.3121C361.341 32.7521 356.733 31.7281 351.101 32.2401C341.373 33.7761 333.181 37.3601 325.501 42.9921C318.845 48.1121 311.165 54.2561 302.461 61.4241C298.365 65.0081 294.269 68.5921 290.173 72.1761C287.613 74.7361 285.053 76.7841 282.493 79.3441C279.933 81.3921 277.885 82.4161 274.813 81.9041C273.277 81.3921 271.229 80.8801 269.181 80.3681L173.437 44.5281C170.365 43.5041 167.293 42.4801 163.709 41.4561C156.541 39.4081 151.421 41.4561 148.349 44.0161C142.717 48.1121 138.109 53.2321 135.037 58.8641C131.453 64.4961 132.477 70.6401 137.597 75.2481C139.645 77.2961 141.693 78.8321 143.229 79.8561C160.637 92.1441 178.557 103.92 195.965 116.208C202.621 120.816 208.765 124.912 213.373 130.544C214.397 132.08 215.421 133.104 216.445 134.64L183.165 166.384C179.581 169.968 175.997 173.04 172.413 176.624C171.901 176.624 171.389 176.112 170.877 176.112L165.245 173.552C160.637 171.504 156.541 168.944 151.933 166.896C146.301 164.336 140.157 164.848 135.549 168.944C132.989 170.992 130.429 173.552 127.869 176.112C123.261 180.72 122.749 186.352 126.845 191.472C127.869 193.008 128.893 194.032 129.917 195.056L139.645 207.344C150.909 222.192 162.685 237.04 174.461 251.376C175.997 253.424 177.533 254.96 179.581 255.984C181.629 257.008 185.725 259.568 190.845 258.032C196.989 255.984 201.597 251.888 203.645 245.744C205.693 240.624 206.205 234.992 204.157 228.848L203.133 224.24C202.109 220.144 201.085 216.048 200.061 211.952C213.885 201.2 227.709 190.96 241.021 180.208L247.677 175.088L249.213 177.648C252.797 183.28 255.869 188.912 257.917 195.056L281.469 255.472C283.005 259.056 284.029 262.64 285.565 265.712C288.125 271.344 292.221 274.416 297.341 274.416C299.389 274.416 301.437 273.904 303.485 272.88C305.021 272.368 306.557 271.856 307.581 270.832C315.773 266.736 320.893 261.104 322.941 253.424C324.477 247.28 323.965 241.648 323.453 237.552L311.165 147.952C310.141 140.784 309.117 133.104 308.093 125.936C307.581 122.352 308.605 120.304 311.165 118.256L321.917 109.04C330.621 101.872 338.813 94.7041 347.517 87.5361C354.685 81.3921 359.293 75.7601 363.389 69.6161C366.461 65.0081 369.533 59.3761 371.069 53.2321C373.629 46.5761 371.069 39.4081 365.437 35.3121ZM361.341 51.1841C359.805 56.3041 357.245 60.9121 354.685 65.0081C351.613 70.1281 347.005 75.2481 340.861 80.3681C332.669 87.5361 323.965 94.7041 315.261 101.872L305.021 110.576C299.389 114.672 296.829 120.816 297.853 127.984C298.877 135.152 299.901 142.32 300.925 150L313.213 239.6C313.725 244.72 313.725 248.304 312.701 251.376C311.165 255.984 308.093 259.568 302.973 262.128C301.949 262.64 300.925 263.152 299.389 263.664C296.317 264.688 295.293 264.176 294.269 261.616C292.733 258.544 291.709 254.96 290.173 251.376L267.645 190.96C265.085 184.304 261.501 178.16 257.917 172.016L254.845 166.896L250.237 160.24L234.365 172.016C220.029 182.768 205.693 194.032 191.869 204.784C188.285 207.344 188.797 210.416 189.309 212.464C190.333 217.072 191.869 221.68 192.893 226.288L193.917 230.896C194.941 234.992 194.941 238.576 193.405 241.648C191.869 244.72 189.821 246.768 186.237 247.792C186.237 247.792 185.213 247.792 183.677 246.768C182.653 246.256 181.629 245.232 181.117 244.208C169.341 229.36 158.077 215.024 146.813 200.176L137.085 187.888C136.061 186.864 135.549 185.84 134.525 184.304C134.013 183.792 134.013 183.28 134.013 183.28C134.013 183.28 134.525 182.768 135.037 182.256C137.085 180.208 139.645 177.648 141.693 176.112C143.229 174.576 145.277 174.576 147.325 175.6C151.933 177.648 156.029 179.696 160.637 182.256L166.269 184.816C167.293 185.328 168.317 185.84 169.341 186.352C171.901 187.888 174.973 187.376 177.533 185.328C181.629 181.232 185.725 177.648 189.821 173.552L225.149 140.272L229.245 136.176L226.685 132.592C226.173 131.568 225.661 131.056 225.149 130.032C223.613 127.984 222.589 125.936 221.053 124.4C215.421 117.744 208.765 112.624 201.597 108.016C184.189 96.2401 166.269 83.9521 148.861 71.6641C147.325 70.6401 145.789 69.6161 144.253 68.0801C142.717 66.5441 142.717 66.0321 143.741 65.0081C146.301 60.4001 150.397 56.3041 155.005 52.7201C156.029 51.6961 157.565 51.1841 161.149 52.2081C164.733 53.2321 167.805 54.2561 170.365 55.2801L266.109 91.1201C268.669 92.1441 271.229 92.6561 273.277 93.1681C278.909 94.1921 284.541 92.6561 289.149 88.5601C291.709 86.0001 294.269 83.9521 296.829 81.3921C300.925 77.8081 305.021 74.2241 309.117 70.6401C317.821 63.4721 324.989 57.3281 331.645 52.2081C337.789 47.6001 344.957 44.5281 352.637 43.5041C355.197 42.9921 357.245 43.5041 359.293 44.5281C361.341 45.0401 362.365 48.1121 361.341 51.1841Z" fill="#BCBCBC"/>
<path d="M136.061 228.848C134.525 226.8 130.941 226.288 128.893 227.824L1.9171 324.592C-0.130901 326.128 -0.642901 329.712 0.893099 331.76C1.9171 333.296 3.4531 333.808 4.9891 333.808C6.0131 333.808 7.0371 333.296 8.0611 332.784L135.037 236.016C137.597 234.48 137.597 231.408 136.061 228.848Z" fill="#BCBCBC"/>
<path d="M152.957 252.912C150.909 250.864 147.837 250.352 145.277 251.888L67.9649 311.28C65.9169 312.816 65.405 316.4 66.941 318.448C67.965 319.984 69.501 320.496 71.037 320.496C72.061 320.496 73.085 319.984 74.109 319.472L151.933 260.08C153.981 258.544 154.493 254.96 152.957 252.912Z" fill="#BCBCBC"/>
<path d="M61.8209 322.032C60.2849 319.984 56.7009 319.472 54.6529 321.008L41.8529 330.736C39.8049 332.272 39.2929 335.856 40.8289 337.904C41.8529 339.44 43.3889 339.952 44.9249 339.952C45.9489 339.952 46.9729 339.44 47.9969 338.928L60.7969 329.2C62.8449 327.664 63.3569 324.08 61.8209 322.032Z" fill="#BCBCBC"/>
<path d="M44.9249 264.688C43.3889 262.64 39.8049 262.128 37.7569 263.664L24.9569 273.392C22.9089 274.928 22.3969 278.512 23.9329 280.56C24.9569 282.096 26.4929 282.608 28.0289 282.608C29.0529 282.608 30.0769 282.096 31.1009 281.584L43.9009 271.856C45.9489 270.32 46.4609 266.736 44.9249 264.688Z" fill="#BCBCBC"/>
<path d="M119.165 208.88C117.629 206.832 114.045 206.32 111.997 207.856L51.069 253.936C49.021 255.472 48.509 259.056 50.045 261.104C51.069 262.128 52.605 263.152 54.141 263.152C55.165 263.152 56.189 262.64 57.213 262.128L118.141 216.048C120.189 214.512 120.701 210.928 119.165 208.88Z" fill="#BCBCBC"/>
</g>
<defs>
<clipPath id="clip0">
<rect width="372.064" height="372.064" fill="white"/>
</clipPath>
</defs>
</svg>
