<svg width="512" height="512" viewBox="0 0 512 512" fill="none" xmlns="http://www.w3.org/2000/svg">
<g clip-path="url(#clip0)">
<path d="M441.6 73.6H382.933V176H441.6V73.6Z" fill="#333333"/>
<path d="M464 21.333H360.533V76.8H464V21.333Z" fill="#676767"/>
<path d="M44.8 276.267V512H462.933V276.267C380.8 194.134 334.933 148.267 253.866 67.2C172.8 149.333 126.933 195.2 44.8 276.267Z" fill="#FEC602"/>
<path d="M464 276.267C381.867 194.134 336 148.267 254.933 67.2C213.333 107.733 181.333 139.733 149.333 171.733C117.333 203.733 85.333 235.733 44.8 276.266V324.266C126.933 242.133 172.8 196.266 253.867 115.199C336 197.332 381.867 243.199 462.934 324.266V330.666V276.266H464V276.267Z" fill="#FDA601"/>
<path d="M216.533 512H90.667V388.267C90.667 353.067 119.467 325.334 153.6 325.334C188.8 325.334 216.533 354.134 216.533 388.267V512Z" fill="#415A6B"/>
<path d="M418.134 325.333H253.867V469.333H418.134V325.333Z" fill="#344A5E"/>
<path d="M327.466 342.4H270.933V452.267H327.466V342.4Z" fill="#8AD7F8"/>
<path d="M401.066 342.4H344.533V452.267H401.066V342.4Z" fill="#8AD7F8"/>
<path d="M502.4 232.533L279.467 9.6C266.667 -3.2 244.267 -3.2 231.467 9.6L9.6 232.533C-3.2 245.333 -3.2 267.733 9.6 280.533C22.4 293.333 44.8 293.333 57.6 280.533L256 82.133L454.4 280.533C467.2 293.333 489.6 293.333 502.4 280.533C515.2 266.667 515.2 245.333 502.4 232.533Z" fill="#676767"/>
</g>
<defs>
<clipPath id="clip0">
<rect width="512" height="512" fill="white"/>
</clipPath>
</defs>
</svg>
