<svg width="512" height="512" viewBox="0 0 512 512" fill="none" xmlns="http://www.w3.org/2000/svg">
<path d="M464 24H336C329.635 24 323.53 26.5286 319.029 31.0294C314.529 35.5303 312 41.6348 312 48C312 54.3652 314.529 60.4697 319.029 64.9706C323.53 69.4714 329.635 72 336 72H406.059L176 302.059C171.519 306.564 169.008 312.662 169.017 319.016C169.025 325.37 171.553 331.461 176.046 335.954C180.539 340.447 186.63 342.975 192.984 342.983C199.338 342.992 205.436 340.481 209.941 336L440 105.941V176C440 182.365 442.529 188.47 447.029 192.971C451.53 197.471 457.635 200 464 200C470.365 200 476.47 197.471 480.971 192.971C485.471 188.47 488 182.365 488 176V48C488 41.6348 485.471 35.5303 480.971 31.0294C476.47 26.5286 470.365 24 464 24Z" fill="#4F4F4F"/>
<path d="M464 248C457.635 248 451.53 250.529 447.029 255.029C442.529 259.53 440 265.635 440 272V440H72V72H240C246.365 72 252.47 69.4714 256.971 64.9706C261.471 60.4697 264 54.3652 264 48C264 41.6348 261.471 35.5303 256.971 31.0294C252.47 26.5286 246.365 24 240 24H48C41.6348 24 35.5303 26.5286 31.0294 31.0294C26.5286 35.5303 24 41.6348 24 48V464C24 470.365 26.5286 476.47 31.0294 480.971C35.5303 485.471 41.6348 488 48 488H464C470.365 488 476.47 485.471 480.971 480.971C485.471 476.47 488 470.365 488 464V272C488 265.635 485.471 259.53 480.971 255.029C476.47 250.529 470.365 248 464 248Z" fill="#4F4F4F"/>
</svg>
