<svg width="146" height="45" viewBox="0 0 146 45" fill="none" xmlns="http://www.w3.org/2000/svg">
<path d="M40.032 34.196C38.184 34.196 36.4853 33.7667 34.936 32.908C33.4053 32.0493 32.1827 30.8547 31.268 29.324C30.372 27.7747 29.924 26.0387 29.924 24.116C29.924 22.1933 30.372 20.4667 31.268 18.936C32.1827 17.4053 33.4053 16.2107 34.936 15.352C36.4853 14.4933 38.184 14.064 40.032 14.064C41.88 14.064 43.5693 14.4933 45.1 15.352C46.6493 16.2107 47.8627 17.4053 48.74 18.936C49.636 20.4667 50.084 22.1933 50.084 24.116C50.084 26.0387 49.636 27.7747 48.74 29.324C47.844 30.8547 46.6307 32.0493 45.1 32.908C43.5693 33.7667 41.88 34.196 40.032 34.196ZM40.032 29.828C41.6 29.828 42.8507 29.3053 43.784 28.26C44.736 27.2147 45.212 25.8333 45.212 24.116C45.212 22.38 44.736 20.9987 43.784 19.972C42.8507 18.9267 41.6 18.404 40.032 18.404C38.4453 18.404 37.176 18.9173 36.224 19.944C35.2907 20.9707 34.824 22.3613 34.824 24.116C34.824 25.852 35.2907 27.2427 36.224 28.288C37.176 29.3147 38.4453 29.828 40.032 29.828ZM69.6037 14.344L62.7997 27.504V34H58.0117V27.504L51.2077 14.344H56.6397L60.4477 22.576L64.2277 14.344H69.6037ZM83.7689 30.528H76.4329L75.2569 34H70.2449L77.3569 14.344H82.9009L90.0129 34H84.9449L83.7689 30.528ZM82.5369 26.832L80.1009 19.636L77.6929 26.832H82.5369ZM105.225 20.56C104.871 19.9067 104.357 19.412 103.685 19.076C103.032 18.7213 102.257 18.544 101.361 18.544C99.8121 18.544 98.5707 19.0573 97.6374 20.084C96.7041 21.092 96.2374 22.4453 96.2374 24.144C96.2374 25.9547 96.7227 27.3733 97.6934 28.4C98.6827 29.408 100.036 29.912 101.753 29.912C102.929 29.912 103.919 29.6133 104.721 29.016C105.543 28.4187 106.14 27.56 106.513 26.44H100.437V22.912H110.853V27.364C110.499 28.5587 109.892 29.6693 109.033 30.696C108.193 31.7227 107.12 32.5533 105.813 33.188C104.507 33.8227 103.032 34.14 101.389 34.14C99.4481 34.14 97.7121 33.72 96.1814 32.88C94.6694 32.0213 93.4841 30.836 92.6254 29.324C91.7854 27.812 91.3654 26.0853 91.3654 24.144C91.3654 22.2027 91.7854 20.476 92.6254 18.964C93.4841 17.4333 94.6694 16.248 96.1814 15.408C97.6934 14.5493 99.4201 14.12 101.361 14.12C103.713 14.12 105.692 14.6893 107.297 15.828C108.921 16.9667 109.995 18.544 110.517 20.56H105.225ZM118.294 18.18V22.156H124.706V25.852H118.294V30.164H125.546V34H113.506V14.344H125.546V18.18H118.294ZM138.678 34L134.59 26.58H133.442V34H128.654V14.344H136.69C138.239 14.344 139.555 14.6147 140.638 15.156C141.739 15.6973 142.561 16.444 143.102 17.396C143.643 18.3293 143.914 19.3747 143.914 20.532C143.914 21.8387 143.541 23.0053 142.794 24.032C142.066 25.0587 140.983 25.7867 139.546 26.216L144.082 34H138.678ZM133.442 23.192H136.41C137.287 23.192 137.941 22.9773 138.37 22.548C138.818 22.1187 139.042 21.512 139.042 20.728C139.042 19.9813 138.818 19.3933 138.37 18.964C137.941 18.5347 137.287 18.32 136.41 18.32H133.442V23.192Z" fill="#1A1A1A"/>
<path d="M23.7854 5.34057C23.7023 5.42358 23.651 5.5383 23.651 5.66495L23.651 11.3979C23.651 11.6513 23.8564 11.8567 24.1098 11.8567C24.3631 11.8566 24.5685 11.6512 24.5685 11.3979L24.5685 5.66499C24.5685 5.41156 24.3631 5.20618 24.1097 5.20618C23.9831 5.20618 23.8684 5.25757 23.7854 5.34057Z" fill="black"/>
<path d="M13.7528 5.34052C13.6698 5.42353 13.6184 5.53824 13.6184 5.6649L13.6184 11.3978C13.6184 11.6512 13.8238 11.8566 14.0772 11.8566C14.3306 11.8566 14.536 11.6512 14.536 11.3978L14.536 5.66494C14.5359 5.4115 14.3306 5.20612 14.0772 5.20612C13.9505 5.20621 13.8358 5.25751 13.7528 5.34052Z" fill="black"/>
<path d="M18.769 0.324342C18.686 0.40735 18.6346 0.522064 18.6346 0.648718L18.6346 6.38163C18.6347 6.63506 18.8401 6.84044 19.0934 6.84044C19.3468 6.8404 19.5522 6.63498 19.5522 6.38167L19.5522 0.648762C19.5522 0.395325 19.3468 0.189944 19.0934 0.189944C18.9668 0.189987 18.852 0.241333 18.769 0.324342Z" fill="black"/>
<path d="M19.0227 36.6843C19.3093 36.6846 19.5675 36.5115 19.6759 36.2465L28.9932 13.4859C29.1091 13.2028 29.0291 12.877 28.7953 12.6794C28.5614 12.4818 28.2269 12.4574 27.9671 12.619L19.3087 18.0061C19.1685 18.0933 18.991 18.0936 18.8503 18.0069L10.0946 12.6096C9.83462 12.4494 9.50114 12.4744 9.26833 12.6717C9.25339 12.6844 9.23908 12.6975 9.2254 12.7112C9.02613 12.9105 8.96354 13.2119 9.07161 13.4764L18.3698 36.2449C18.4782 36.5103 18.7362 36.6839 19.0227 36.6843V36.6843Z" fill="#59A7FF"/>
<path d="M19.0226 36.6842C19.0255 36.6842 19.0284 36.684 19.0313 36.6839L19.0834 18.0714C19.0026 18.0723 18.9217 18.051 18.8502 18.0069L10.0944 12.6096C9.8345 12.4494 9.50102 12.4744 9.26821 12.6717C9.25327 12.6844 9.23896 12.6975 9.22528 12.7112C9.02601 12.9105 8.96342 13.2118 9.07149 13.4764L18.3697 36.2449C18.478 36.5103 18.7361 36.6839 19.0226 36.6842V36.6842Z" fill="#0082FF"/>
</svg>
