<svg width="366" height="366" viewBox="0 0 366 366" fill="none" xmlns="http://www.w3.org/2000/svg">
<g clip-path="url(#clip0)">
<path d="M243.188 182.859L356.32 69.7266C368.82 57.2266 368.82 36.9609 356.32 24.4805L341.238 9.39844C328.734 -3.10547 308.469 -3.10547 295.988 9.39844L182.859 122.527L69.7266 9.375C57.2266 -3.125 36.9609 -3.125 24.4805 9.375L9.375 24.457C-3.125 36.9609 -3.125 57.2266 9.375 69.707L122.527 182.859L9.39844 295.988C-3.10547 308.492 -3.10547 328.758 9.39844 341.238L24.4805 356.32C36.9805 368.82 57.2461 368.82 69.7266 356.32L182.859 243.188L295.988 356.32C308.492 368.82 328.758 368.82 341.238 356.32L356.32 341.238C368.82 328.734 368.82 308.469 356.32 295.988L243.188 182.859Z" fill="#4F4F4F"/>
</g>
<defs>
<clipPath id="clip0">
<rect width="365.696" height="365.696" fill="white"/>
</clipPath>
</defs>
</svg>
