<svg width="24" height="24" viewBox="0 0 24 24" fill="none" xmlns="http://www.w3.org/2000/svg">
<path d="M11.2044 18.0455C11.3088 18.1499 11.4329 18.2328 11.5694 18.2894C11.7059 18.3459 11.8521 18.375 11.9999 18.375C12.1476 18.375 12.2939 18.3459 12.4304 18.2894C12.5669 18.2328 12.6909 18.1499 12.7954 18.0455L17.038 13.8029C17.249 13.5919 17.3675 13.3057 17.3675 13.0074C17.3675 12.709 17.249 12.4229 17.038 12.2119C16.827 12.0009 16.5409 11.8824 16.2425 11.8824C15.9442 11.8824 15.658 12.0009 15.447 12.2119L13.1249 14.534V2.25C13.1249 1.95163 13.0064 1.66548 12.7954 1.4545C12.5844 1.24353 12.2983 1.125 11.9999 1.125C11.7015 1.125 11.4154 1.24353 11.2044 1.4545C10.9934 1.66548 10.8749 1.95163 10.8749 2.25V14.534L8.55275 12.2119C8.34177 12.0009 8.05562 11.8824 7.75726 11.8824C7.45889 11.8824 7.17274 12.0009 6.96177 12.2119C6.75079 12.4229 6.63226 12.709 6.63226 13.0074C6.63226 13.3057 6.75079 13.5919 6.96177 13.8029L11.2044 18.0455Z" fill="#4F4F4F"/>
<path d="M21.75 10.875C21.4516 10.875 21.1655 10.9935 20.9545 11.2045C20.7435 11.4155 20.625 11.7016 20.625 12V20.625H3.375V12C3.375 11.7016 3.25647 11.4155 3.0455 11.2045C2.83452 10.9935 2.54837 10.875 2.25 10.875C1.95163 10.875 1.66548 10.9935 1.4545 11.2045C1.24353 11.4155 1.125 11.7016 1.125 12V21C1.125 21.4973 1.32254 21.9742 1.67417 22.3258C2.02581 22.6775 2.50272 22.875 3 22.875H21C21.4973 22.875 21.9742 22.6775 22.3258 22.3258C22.6775 21.9742 22.875 21.4973 22.875 21V12C22.875 11.7016 22.7565 11.4155 22.5455 11.2045C22.3345 10.9935 22.0484 10.875 21.75 10.875Z" fill="#4F4F4F"/>
</svg>
