<svg width="330" height="330" viewBox="0 0 330 330" fill="none" xmlns="http://www.w3.org/2000/svg">
<path d="M165 0.00805664C74.019 0.00805664 0 74.0241 0 164.999C0 255.976 74.019 329.991 165 329.991C255.981 329.991 330 255.976 330 164.999C330 74.0241 255.981 0.00805664 165 0.00805664ZM165 299.992C90.561 299.992 30 239.435 30 165C30 90.5651 90.561 30.0081 165 30.0081C239.439 30.0081 300 90.5651 300 164.999C300 239.436 239.439 299.992 165 299.992Z" fill="#4F4F4F"/>
<path d="M165 130.008C156.716 130.008 150 136.724 150 145.008V244.991C150 253.275 156.716 259.991 165 259.991C173.284 259.991 180 253.275 180 244.991V145.008C180 136.725 173.284 130.008 165 130.008Z" fill="#4F4F4F"/>
<path d="M165 70.0111C161.05 70.0111 157.189 71.6111 154.39 74.4011C151.6 77.1911 150 81.0611 150 85.0111C150 88.9611 151.6 92.8211 154.39 95.6211C157.18 98.4111 161.05 100.011 165 100.011C168.95 100.011 172.81 98.4111 175.609 95.6211C178.399 92.8211 180 88.9611 180 85.0111C180 81.0611 178.399 77.1911 175.609 74.4011C172.81 71.6101 168.95 70.0111 165 70.0111Z" fill="#4F4F4F"/>
</svg>
