<svg width="141" height="45" viewBox="0 0 141 45" fill="none" xmlns="http://www.w3.org/2000/svg">
<g clip-path="url(#clip0)">
<path d="M33.4619 34.196C31.6139 34.196 29.9153 33.7667 28.3659 32.908C26.8353 32.0493 25.6126 30.8547 24.6979 29.324C23.8019 27.7747 23.3539 26.0387 23.3539 24.116C23.3539 22.1933 23.8019 20.4667 24.6979 18.936C25.6126 17.4053 26.8353 16.2107 28.3659 15.352C29.9153 14.4933 31.6139 14.064 33.4619 14.064C35.3099 14.064 36.9993 14.4933 38.5299 15.352C40.0793 16.2107 41.2926 17.4053 42.1699 18.936C43.0659 20.4667 43.5139 22.1933 43.5139 24.116C43.5139 26.0387 43.0659 27.7747 42.1699 29.324C41.2739 30.8547 40.0606 32.0493 38.5299 32.908C36.9993 33.7667 35.3099 34.196 33.4619 34.196ZM33.4619 29.828C35.0299 29.828 36.2806 29.3053 37.2139 28.26C38.1659 27.2147 38.6419 25.8333 38.6419 24.116C38.6419 22.38 38.1659 20.9987 37.2139 19.972C36.2806 18.9267 35.0299 18.404 33.4619 18.404C31.8753 18.404 30.6059 18.9173 29.6539 19.944C28.7206 20.9707 28.2539 22.3613 28.2539 24.116C28.2539 25.852 28.7206 27.2427 29.6539 28.288C30.6059 29.3147 31.8753 29.828 33.4619 29.828ZM63.0337 14.344L56.2297 27.504V34H51.4417V27.504L44.6377 14.344H50.0697L53.8777 22.576L57.6577 14.344H63.0337ZM77.1988 30.528H69.8628L68.6868 34H63.6748L70.7868 14.344H76.3308L83.4428 34H78.3748L77.1988 30.528ZM75.9668 26.832L73.5308 19.636L71.1228 26.832H75.9668ZM98.6553 20.56C98.3007 19.9067 97.7873 19.412 97.1153 19.076C96.462 18.7213 95.6873 18.544 94.7913 18.544C93.242 18.544 92.0007 19.0573 91.0673 20.084C90.134 21.092 89.6673 22.4453 89.6673 24.144C89.6673 25.9547 90.1527 27.3733 91.1233 28.4C92.1127 29.408 93.466 29.912 95.1833 29.912C96.3593 29.912 97.3487 29.6133 98.1513 29.016C98.9727 28.4187 99.57 27.56 99.9433 26.44H93.8673V22.912H104.283V27.364C103.929 28.5587 103.322 29.6693 102.463 30.696C101.623 31.7227 100.55 32.5533 99.2433 33.188C97.9367 33.8227 96.462 34.14 94.8193 34.14C92.878 34.14 91.142 33.72 89.6113 32.88C88.0993 32.0213 86.914 30.836 86.0553 29.324C85.2153 27.812 84.7953 26.0853 84.7953 24.144C84.7953 22.2027 85.2153 20.476 86.0553 18.964C86.914 17.4333 88.0993 16.248 89.6113 15.408C91.1233 14.5493 92.85 14.12 94.7913 14.12C97.1433 14.12 99.122 14.6893 100.727 15.828C102.351 16.9667 103.425 18.544 103.947 20.56H98.6553ZM111.723 18.18V22.156H118.135V25.852H111.723V30.164H118.975V34H106.935V14.344H118.975V18.18H111.723ZM132.108 34L128.02 26.58H126.872V34H122.084V14.344H130.12C131.669 14.344 132.985 14.6147 134.068 15.156C135.169 15.6973 135.991 16.444 136.532 17.396C137.073 18.3293 137.344 19.3747 137.344 20.532C137.344 21.8387 136.971 23.0053 136.224 24.032C135.496 25.0587 134.413 25.7867 132.976 26.216L137.512 34H132.108ZM126.872 23.192H129.84C130.717 23.192 131.371 22.9773 131.8 22.548C132.248 22.1187 132.472 21.512 132.472 20.728C132.472 19.9813 132.248 19.3933 131.8 18.964C131.371 18.5347 130.717 18.32 129.84 18.32H126.872V23.192Z" fill="#1A1A1A"/>
<path d="M17.546 5.34064C17.4612 5.42364 17.4087 5.53836 17.4087 5.66501L17.4087 11.3979C17.4087 11.6514 17.6186 11.8567 17.8775 11.8567C18.1363 11.8567 18.3462 11.6513 18.3462 11.398L18.3462 5.66506C18.3462 5.41162 18.1363 5.20624 17.8774 5.20624C17.748 5.20624 17.6308 5.25763 17.546 5.34064Z" fill="black"/>
<path d="M7.29539 5.34052C7.21057 5.42353 7.15807 5.53824 7.15807 5.6649L7.15807 11.3978C7.15812 11.6512 7.36796 11.8566 7.62686 11.8566C7.88572 11.8566 8.09561 11.6512 8.09561 11.3978L8.09561 5.66494C8.09556 5.41151 7.88572 5.20612 7.62682 5.20612C7.49741 5.20621 7.3802 5.25751 7.29539 5.34052Z" fill="black"/>
<path d="M12.4206 0.32428C12.3358 0.407289 12.2833 0.522002 12.2833 0.648656L12.2833 6.38156C12.2834 6.635 12.4932 6.84038 12.7521 6.84038C13.011 6.84034 13.2209 6.63492 13.2209 6.38161L13.2209 0.648701C13.2208 0.395263 13.011 0.189882 12.7521 0.189882C12.6227 0.189925 12.5054 0.241272 12.4206 0.32428Z" fill="black"/>
<path d="M12.6799 36.6843C12.9726 36.6847 13.2364 36.5116 13.3472 36.2466L22.8671 13.486C22.9855 13.2028 22.9038 12.8771 22.6648 12.6794C22.4259 12.4818 22.0841 12.4574 21.8187 12.6191L12.9721 18.0061C12.8288 18.0934 12.6474 18.0937 12.5037 18.007L3.55759 12.6097C3.292 12.4495 2.95128 12.4745 2.7134 12.6718C2.69814 12.6844 2.68352 12.6976 2.66955 12.7113C2.46594 12.9106 2.40199 13.2119 2.51241 13.4765L12.0127 36.245C12.1235 36.5104 12.3871 36.684 12.6799 36.6843Z" fill="#FEC602"/>
<path d="M12.6798 36.6843C12.6828 36.6843 12.6857 36.684 12.6887 36.684L12.742 18.0715C12.6594 18.0724 12.5767 18.051 12.5037 18.007L3.55754 12.6097C3.29195 12.4494 2.95123 12.4745 2.71335 12.6717C2.69808 12.6844 2.68346 12.6976 2.66949 12.7113C2.46588 12.9105 2.40193 13.2119 2.51236 13.4764L12.0127 36.245C12.1234 36.5104 12.387 36.684 12.6798 36.6843Z" fill="#FDA601"/>
</g>
<defs>
<clipPath id="clip0">
<rect width="141" height="45" fill="white"/>
</clipPath>
</defs>
</svg>
